<mxfile host="app.diagrams.net" modified="2022-07-09T21:52:17.843Z" agent="5.0 (X11)" etag="uQB2aifKnHz6aTerL6y0" version="20.0.1" type="github">
  <diagram id="I2rP_LmeuCBiBPERJ0c1" name="Page-1">
    <mxGraphModel dx="754" dy="1581" grid="1" gridSize="10" guides="1" tooltips="1" connect="1" arrows="1" fold="1" page="1" pageScale="1" pageWidth="850" pageHeight="1100" math="0" shadow="0">
      <root>
        <mxCell id="0" />
        <mxCell id="1" parent="0" />
        <mxCell id="vRk48V976HWC19-EjkwC-1" value="&lt;p id=&quot;docs-internal-guid-84f52199-7fff-3bef-a2f3-da9d66dffe4d&quot; style=&quot;line-height: 1.8; margin-top: 0pt; margin-bottom: 0pt; font-size: 13px;&quot; dir=&quot;ltr&quot;&gt;&lt;span style=&quot;font-size: 13px; font-family: Arial; color: rgb(0, 0, 0); background-color: transparent; font-weight: 400; font-style: normal; font-variant: normal; text-decoration: none; vertical-align: baseline;&quot;&gt;¡Compa Samuelón!&lt;/span&gt;&lt;/p&gt;&lt;p style=&quot;line-height: 1.8; margin-top: 0pt; margin-bottom: 0pt; font-size: 13px;&quot; dir=&quot;ltr&quot;&gt;&lt;span style=&quot;font-size: 13px; font-family: Arial; color: rgb(0, 0, 0); background-color: transparent; font-weight: 400; font-style: normal; font-variant: normal; text-decoration: none; vertical-align: baseline;&quot;&gt;1-2-3, 1-2-3&lt;/span&gt;&lt;/p&gt;&lt;p style=&quot;line-height: 1.8; margin-top: 0pt; margin-bottom: 0pt; font-size: 13px;&quot; dir=&quot;ltr&quot;&gt;&lt;span style=&quot;font-size: 13px; font-family: Arial; color: rgb(0, 0, 0); background-color: transparent; font-weight: 400; font-style: normal; font-variant: normal; text-decoration: none; vertical-align: baseline;&quot;&gt;¡Pura fuerza regida, compa Jesús!&lt;/span&gt;&lt;/p&gt;&lt;p style=&quot;line-height: 1.8; margin-top: 0pt; margin-bottom: 0pt; font-size: 13px;&quot; dir=&quot;ltr&quot;&gt;&lt;span style=&quot;font-size: 13px; font-family: Arial; color: rgb(0, 0, 0); background-color: transparent; font-weight: 400; font-style: normal; font-variant: normal; text-decoration: none; vertical-align: baseline;&quot;&gt;Compa gemelos, i are known my boy&lt;/span&gt;&lt;/p&gt;&lt;p style=&quot;line-height: 1.8; margin-top: 0pt; margin-bottom: 0pt; font-size: 13px;&quot; dir=&quot;ltr&quot;&gt;&lt;span style=&quot;font-size: 13px; font-family: Arial; color: rgb(0, 0, 0); background-color: transparent; font-weight: 400; font-style: normal; font-variant: normal; text-decoration: none; vertical-align: baseline;&quot;&gt;¡Otro pedo!&lt;/span&gt;&lt;/p&gt;" style="text;html=1;strokeColor=none;fillColor=none;align=center;verticalAlign=middle;whiteSpace=wrap;rounded=0;fontSize=13;" vertex="1" parent="1">
          <mxGeometry x="5" y="-670" width="210" height="110" as="geometry" />
        </mxCell>
        <mxCell id="vRk48V976HWC19-EjkwC-2" value="&lt;p style=&quot;line-height: 1.8; margin-top: 0pt; margin-bottom: 0pt; font-size: 13px;&quot; dir=&quot;ltr&quot;&gt;&lt;font style=&quot;font-size: 13px;&quot;&gt;&lt;span style=&quot;font-size: 13px; font-family: Arial; color: rgb(0, 0, 0); background-color: transparent; font-weight: 400; font-style: normal; font-variant: normal; text-decoration: none; vertical-align: baseline;&quot;&gt;Ahora vamos para adelante&lt;/span&gt;&lt;/font&gt;&lt;/p&gt;&lt;p style=&quot;line-height: 1.8; margin-top: 0pt; margin-bottom: 0pt; font-size: 13px;&quot; dir=&quot;ltr&quot;&gt;&lt;font style=&quot;font-size: 13px;&quot;&gt;&lt;span style=&quot;font-size: 13px; font-family: Arial; color: rgb(0, 0, 0); background-color: transparent; font-weight: 400; font-style: normal; font-variant: normal; text-decoration: none; vertical-align: baseline;&quot;&gt;Ahora no doy paso pa&#39; &#39;trás&lt;/span&gt;&lt;/font&gt;&lt;/p&gt;&lt;p style=&quot;line-height: 1.8; margin-top: 0pt; margin-bottom: 0pt; font-size: 13px;&quot; dir=&quot;ltr&quot;&gt;&lt;font style=&quot;font-size: 13px;&quot;&gt;&lt;span style=&quot;font-size: 13px; font-family: Arial; color: rgb(0, 0, 0); background-color: transparent; font-weight: 400; font-style: normal; font-variant: normal; text-decoration: none; vertical-align: baseline;&quot;&gt;Traigo la mente constante&lt;/span&gt;&lt;/font&gt;&lt;/p&gt;&lt;p style=&quot;line-height: 1.8; margin-top: 0pt; margin-bottom: 0pt; font-size: 13px;&quot; dir=&quot;ltr&quot;&gt;&lt;font style=&quot;font-size: 13px;&quot;&gt;&lt;span style=&quot;font-size: 13px; font-family: Arial; color: rgb(0, 0, 0); background-color: transparent; font-weight: 400; font-style: normal; font-variant: normal; text-decoration: none; vertical-align: baseline;&quot;&gt;Ahora no trabajo pa&#39; nadie&lt;/span&gt;&lt;/font&gt;&lt;/p&gt;" style="text;html=1;strokeColor=none;fillColor=none;align=center;verticalAlign=middle;whiteSpace=wrap;rounded=0;fontSize=13;" vertex="1" parent="1">
          <mxGeometry x="240" y="-700" width="210" height="150" as="geometry" />
        </mxCell>
        <mxCell id="vRk48V976HWC19-EjkwC-3" value="&lt;p style=&quot;line-height: 1.8; margin-top: 0pt; margin-bottom: 0pt; font-size: 13px;&quot; dir=&quot;ltr&quot;&gt;&lt;span style=&quot;font-size: 13px; font-family: Arial; color: rgb(0, 0, 0); background-color: transparent; font-weight: 400; font-style: normal; font-variant: normal; text-decoration: none; vertical-align: baseline;&quot;&gt;Antes todos se burlaban&lt;/span&gt;&lt;/p&gt;&lt;p style=&quot;line-height: 1.8; margin-top: 0pt; margin-bottom: 0pt; font-size: 13px;&quot; dir=&quot;ltr&quot;&gt;&lt;span style=&quot;font-size: 13px; font-family: Arial; color: rgb(0, 0, 0); background-color: transparent; font-weight: 400; font-style: normal; font-variant: normal; text-decoration: none; vertical-align: baseline;&quot;&gt;Porque no hubo para nada&lt;/span&gt;&lt;/p&gt;&lt;p style=&quot;line-height: 1.8; margin-top: 0pt; margin-bottom: 0pt; font-size: 13px;&quot; dir=&quot;ltr&quot;&gt;&lt;span style=&quot;font-size: 13px; font-family: Arial; color: rgb(0, 0, 0); background-color: transparent; font-weight: 400; font-style: normal; font-variant: normal; text-decoration: none; vertical-align: baseline;&quot;&gt;Pero diosito es muy grande&lt;/span&gt;&lt;/p&gt;&lt;p style=&quot;line-height: 1.8; margin-top: 0pt; margin-bottom: 0pt; font-size: 13px;&quot; dir=&quot;ltr&quot;&gt;&lt;span style=&quot;font-size: 13px; font-family: Arial; color: rgb(0, 0, 0); background-color: transparent; font-weight: 400; font-style: normal; font-variant: normal; text-decoration: none; vertical-align: baseline;&quot;&gt;Las puertas que no tenía&lt;/span&gt;&lt;/p&gt;&lt;p style=&quot;line-height: 1.8; margin-top: 0pt; margin-bottom: 0pt; font-size: 13px;&quot; dir=&quot;ltr&quot;&gt;&lt;span style=&quot;font-size: 13px; font-family: Arial; color: rgb(0, 0, 0); background-color: transparent; font-weight: 400; font-style: normal; font-variant: normal; text-decoration: none; vertical-align: baseline;&quot;&gt;Ahora se me abrieron solas&lt;/span&gt;&lt;/p&gt;&lt;p style=&quot;line-height: 1.8; margin-top: 0pt; margin-bottom: 0pt; font-size: 13px;&quot; dir=&quot;ltr&quot;&gt;&lt;span style=&quot;font-size: 13px; font-family: Arial; color: rgb(0, 0, 0); background-color: transparent; font-weight: 400; font-style: normal; font-variant: normal; text-decoration: none; vertical-align: baseline;&quot;&gt;Porque no supe rajarme&lt;/span&gt;&lt;/p&gt;" style="text;html=1;strokeColor=none;fillColor=none;align=center;verticalAlign=middle;whiteSpace=wrap;rounded=0;fontSize=13;" vertex="1" parent="1">
          <mxGeometry x="480" y="-700" width="200" height="150" as="geometry" />
        </mxCell>
        <mxCell id="vRk48V976HWC19-EjkwC-4" value="&lt;p style=&quot;line-height: 1.8; margin-top: 0pt; margin-bottom: 0pt; font-size: 13px;&quot; dir=&quot;ltr&quot;&gt;&lt;span style=&quot;font-size: 13px; font-family: Arial; color: rgb(0, 0, 0); background-color: transparent; font-weight: 400; font-style: normal; font-variant: normal; text-decoration: none; vertical-align: baseline;&quot;&gt;Pero cuando no tenía&lt;/span&gt;&lt;/p&gt;&lt;p style=&quot;line-height: 1.8; margin-top: 0pt; margin-bottom: 0pt; font-size: 13px;&quot; dir=&quot;ltr&quot;&gt;&lt;span style=&quot;font-size: 13px; font-family: Arial; color: rgb(0, 0, 0); background-color: transparent; font-weight: 400; font-style: normal; font-variant: normal; text-decoration: none; vertical-align: baseline;&quot;&gt;Nadie conmigo comía&lt;/span&gt;&lt;/p&gt;&lt;p style=&quot;line-height: 1.8; margin-top: 0pt; margin-bottom: 0pt; font-size: 13px;&quot; dir=&quot;ltr&quot;&gt;&lt;span style=&quot;font-size: 13px; font-family: Arial; color: rgb(0, 0, 0); background-color: transparent; font-weight: 400; font-style: normal; font-variant: normal; text-decoration: none; vertical-align: baseline;&quot;&gt;Pero comparti mi plato&lt;/span&gt;&lt;/p&gt;&lt;p style=&quot;line-height: 1.8; margin-top: 0pt; margin-bottom: 0pt; font-size: 13px;&quot; dir=&quot;ltr&quot;&gt;&lt;span style=&quot;font-size: 13px; font-family: Arial; color: rgb(0, 0, 0); background-color: transparent; font-weight: 400; font-style: normal; font-variant: normal; text-decoration: none; vertical-align: baseline;&quot;&gt;Aunque no lo merecían&lt;/span&gt;&lt;/p&gt;" style="text;html=1;strokeColor=none;fillColor=none;align=center;verticalAlign=middle;whiteSpace=wrap;rounded=0;fontSize=13;" vertex="1" parent="1">
          <mxGeometry x="700" y="-650" width="110" height="90" as="geometry" />
        </mxCell>
        <mxCell id="vRk48V976HWC19-EjkwC-5" value="&lt;p style=&quot;line-height: 1.8; margin-top: 0pt; margin-bottom: 0pt; font-size: 13px;&quot; dir=&quot;ltr&quot;&gt;&lt;span style=&quot;font-size: 13px; font-family: Arial; color: rgb(0, 0, 0); background-color: transparent; font-weight: 400; font-style: normal; font-variant: normal; text-decoration: none; vertical-align: baseline;&quot;&gt;No dejó de dar la mano&lt;/span&gt;&lt;/p&gt;&lt;p style=&quot;line-height: 1.8; margin-top: 0pt; margin-bottom: 0pt; font-size: 13px;&quot; dir=&quot;ltr&quot;&gt;&lt;span style=&quot;font-size: 13px; font-family: Arial; color: rgb(0, 0, 0); background-color: transparent; font-weight: 400; font-style: normal; font-variant: normal; text-decoration: none; vertical-align: baseline;&quot;&gt;Porque así es como me criaron&lt;/span&gt;&lt;/p&gt;&lt;p style=&quot;line-height: 1.8; margin-top: 0pt; margin-bottom: 0pt; font-size: 13px;&quot; dir=&quot;ltr&quot;&gt;&lt;span style=&quot;font-size: 13px; font-family: Arial; color: rgb(0, 0, 0); background-color: transparent; font-weight: 400; font-style: normal; font-variant: normal; text-decoration: none; vertical-align: baseline;&quot;&gt;Vengo de buena familia&lt;/span&gt;&lt;/p&gt;&lt;p style=&quot;line-height: 1.8; margin-top: 0pt; margin-bottom: 0pt; font-size: 13px;&quot; dir=&quot;ltr&quot;&gt;&lt;span style=&quot;font-size: 13px; font-family: Arial; color: rgb(0, 0, 0); background-color: transparent; font-weight: 400; font-style: normal; font-variant: normal; text-decoration: none; vertical-align: baseline;&quot;&gt;Mijo no te creas más que nadie&lt;/span&gt;&lt;/p&gt;&lt;p style=&quot;line-height: 1.8; margin-top: 0pt; margin-bottom: 0pt; font-size: 13px;&quot; dir=&quot;ltr&quot;&gt;&lt;span style=&quot;font-size: 13px; font-family: Arial; color: rgb(0, 0, 0); background-color: transparent; font-weight: 400; font-style: normal; font-variant: normal; text-decoration: none; vertical-align: baseline;&quot;&gt;Porque todos somos iguales&lt;/span&gt;&lt;/p&gt;" style="text;html=1;strokeColor=none;fillColor=none;align=center;verticalAlign=middle;whiteSpace=wrap;rounded=0;fontSize=13;" vertex="1" parent="1">
          <mxGeometry x="40" y="-450" width="130" height="150" as="geometry" />
        </mxCell>
        <mxCell id="vRk48V976HWC19-EjkwC-6" value="&lt;p style=&quot;line-height: 1.8; margin-top: 0pt; margin-bottom: 0pt; font-size: 13px;&quot; dir=&quot;ltr&quot;&gt;&lt;span style=&quot;font-size: 13px; font-family: Arial; color: rgb(0, 0, 0); background-color: transparent; font-weight: 400; font-style: normal; font-variant: normal; text-decoration: none; vertical-align: baseline;&quot;&gt;Nunca me he rajado compa&lt;/span&gt;&lt;/p&gt;&lt;p style=&quot;line-height: 1.8; margin-top: 0pt; margin-bottom: 0pt; font-size: 13px;&quot; dir=&quot;ltr&quot;&gt;&lt;span style=&quot;font-size: 13px; font-family: Arial; color: rgb(0, 0, 0); background-color: transparent; font-weight: 400; font-style: normal; font-variant: normal; text-decoration: none; vertical-align: baseline;&quot;&gt;Tengo comprobantes&lt;/span&gt;&lt;/p&gt;&lt;p style=&quot;line-height: 1.8; margin-top: 0pt; margin-bottom: 0pt; font-size: 13px;&quot; dir=&quot;ltr&quot;&gt;&lt;span style=&quot;font-size: 13px; font-family: Arial; color: rgb(0, 0, 0); background-color: transparent; font-weight: 400; font-style: normal; font-variant: normal; text-decoration: none; vertical-align: baseline;&quot;&gt;Casas, carros, viejas&lt;/span&gt;&lt;/p&gt;&lt;p style=&quot;line-height: 1.8; margin-top: 0pt; margin-bottom: 0pt; font-size: 13px;&quot; dir=&quot;ltr&quot;&gt;&lt;span style=&quot;font-size: 13px; font-family: Arial; color: rgb(0, 0, 0); background-color: transparent; font-weight: 400; font-style: normal; font-variant: normal; text-decoration: none; vertical-align: baseline;&quot;&gt;Y me sobran los billetes&lt;/span&gt;&lt;/p&gt;&lt;p style=&quot;line-height: 1.8; margin-top: 0pt; margin-bottom: 0pt; font-size: 13px;&quot; dir=&quot;ltr&quot;&gt;&lt;span style=&quot;font-size: 13px; font-family: Arial; color: rgb(0, 0, 0); background-color: transparent; font-weight: 400; font-style: normal; font-variant: normal; text-decoration: none; vertical-align: baseline;&quot;&gt;Me acostumbre a lo bueno&lt;/span&gt;&lt;/p&gt;&lt;p style=&quot;line-height: 1.8; margin-top: 0pt; margin-bottom: 0pt; font-size: 13px;&quot; dir=&quot;ltr&quot;&gt;&lt;span style=&quot;font-size: 13px; font-family: Arial; color: rgb(0, 0, 0); background-color: transparent; font-weight: 400; font-style: normal; font-variant: normal; text-decoration: none; vertical-align: baseline;&quot;&gt;Y tú tuve que tenerlo&lt;/span&gt;&lt;/p&gt;" style="text;html=1;strokeColor=none;fillColor=none;align=center;verticalAlign=middle;whiteSpace=wrap;rounded=0;fontSize=13;" vertex="1" parent="1">
          <mxGeometry x="450" y="-490" width="170" height="180" as="geometry" />
        </mxCell>
        <mxCell id="vRk48V976HWC19-EjkwC-7" value="&lt;p style=&quot;line-height: 1.8; margin-top: 0pt; margin-bottom: 0pt; font-size: 13px;&quot; dir=&quot;ltr&quot;&gt;&lt;span style=&quot;font-size: 13px; font-family: Arial; color: rgb(0, 0, 0); background-color: transparent; font-weight: 400; font-style: normal; font-variant: normal; text-decoration: none; vertical-align: baseline;&quot;&gt;Sí ahorita me ven caminando&lt;/span&gt;&lt;/p&gt;&lt;p style=&quot;line-height: 1.8; margin-top: 0pt; margin-bottom: 0pt; font-size: 13px;&quot; dir=&quot;ltr&quot;&gt;&lt;span style=&quot;font-size: 13px; font-family: Arial; color: rgb(0, 0, 0); background-color: transparent; font-weight: 400; font-style: normal; font-variant: normal; text-decoration: none; vertical-align: baseline;&quot;&gt;Paso firme pa&#39; adelante&lt;/span&gt;&lt;/p&gt;&lt;p style=&quot;line-height: 1.8; margin-top: 0pt; margin-bottom: 0pt; font-size: 13px;&quot; dir=&quot;ltr&quot;&gt;&lt;span style=&quot;font-size: 13px; font-family: Arial; color: rgb(0, 0, 0); background-color: transparent; font-weight: 400; font-style: normal; font-variant: normal; text-decoration: none; vertical-align: baseline;&quot;&gt;Ando alivianado&lt;/span&gt;&lt;/p&gt;&lt;p style=&quot;line-height: 1.8; margin-top: 0pt; margin-bottom: 0pt; font-size: 13px;&quot; dir=&quot;ltr&quot;&gt;&lt;span style=&quot;font-size: 13px; font-family: Arial; color: rgb(0, 0, 0); background-color: transparent; font-weight: 400; font-style: normal; font-variant: normal; text-decoration: none; vertical-align: baseline;&quot;&gt;Porque supe bien chingarle&lt;/span&gt;&lt;/p&gt;" style="text;html=1;strokeColor=none;fillColor=none;align=center;verticalAlign=middle;whiteSpace=wrap;rounded=0;fontSize=13;" vertex="1" parent="1">
          <mxGeometry x="280" y="-470" width="130" height="140" as="geometry" />
        </mxCell>
        <mxCell id="vRk48V976HWC19-EjkwC-8" value="&lt;br style=&quot;font-size: 13px;&quot;&gt;&lt;p style=&quot;line-height: 1.8; margin-top: 0pt; margin-bottom: 0pt; font-size: 13px;&quot; dir=&quot;ltr&quot;&gt;&lt;span style=&quot;font-size: 13px; font-family: Arial; color: rgb(0, 0, 0); background-color: transparent; font-weight: 400; font-style: normal; font-variant: normal; text-decoration: none; vertical-align: baseline;&quot;&gt;A huevo, viejo&lt;/span&gt;&lt;/p&gt;&lt;p style=&quot;line-height: 1.8; margin-top: 0pt; margin-bottom: 0pt; font-size: 13px;&quot; dir=&quot;ltr&quot;&gt;&lt;span style=&quot;font-size: 13px; font-family: Arial; color: rgb(0, 0, 0); background-color: transparent; font-weight: 400; font-style: normal; font-variant: normal; text-decoration: none; vertical-align: baseline;&quot;&gt;Compa Mil, compa Samuelón&lt;/span&gt;&lt;/p&gt;&lt;p style=&quot;line-height: 1.8; margin-top: 0pt; margin-bottom: 0pt; font-size: 13px;&quot; dir=&quot;ltr&quot;&gt;&lt;span style=&quot;font-size: 13px; font-family: Arial; color: rgb(0, 0, 0); background-color: transparent; font-weight: 400; font-style: normal; font-variant: normal; text-decoration: none; vertical-align: baseline;&quot;&gt;Rasquele viejo&lt;/span&gt;&lt;/p&gt;&lt;p style=&quot;line-height: 1.8; margin-top: 0pt; margin-bottom: 0pt; font-size: 13px;&quot; dir=&quot;ltr&quot;&gt;&lt;span style=&quot;font-size: 13px; font-family: Arial; color: rgb(0, 0, 0); background-color: transparent; font-weight: 400; font-style: normal; font-variant: normal; text-decoration: none; vertical-align: baseline;&quot;&gt;¡Otro pedo!&lt;/span&gt;&lt;/p&gt;&lt;p style=&quot;line-height: 1.8; margin-top: 0pt; margin-bottom: 0pt; font-size: 13px;&quot; dir=&quot;ltr&quot;&gt;&lt;span style=&quot;font-size: 13px; font-family: Arial; color: rgb(0, 0, 0); background-color: transparent; font-weight: 400; font-style: normal; font-variant: normal; text-decoration: none; vertical-align: baseline;&quot;&gt;¡Y no le aflojé mi compa!&lt;/span&gt;&lt;/p&gt;&lt;p style=&quot;line-height: 1.8; margin-top: 0pt; margin-bottom: 0pt; font-size: 13px;&quot; dir=&quot;ltr&quot;&gt;&lt;span style=&quot;font-size: 13px; font-family: Arial; color: rgb(0, 0, 0); background-color: transparent; font-weight: 400; font-style: normal; font-variant: normal; text-decoration: none; vertical-align: baseline;&quot;&gt;¡Y no le vamos aflojar compa Jesús!&lt;/span&gt;&lt;/p&gt;&lt;p style=&quot;line-height: 1.8; margin-top: 0pt; margin-bottom: 0pt; font-size: 13px;&quot; dir=&quot;ltr&quot;&gt;&lt;span style=&quot;font-size: 13px; font-family: Arial; color: rgb(0, 0, 0); background-color: transparent; font-weight: 400; font-style: normal; font-variant: normal; text-decoration: none; vertical-align: baseline;&quot;&gt;Los recuerdos que tenía&lt;/span&gt;&lt;/p&gt;&lt;p style=&quot;line-height: 1.8; margin-top: 0pt; margin-bottom: 0pt; font-size: 13px;&quot; dir=&quot;ltr&quot;&gt;&lt;span style=&quot;font-size: 13px; font-family: Arial; color: rgb(0, 0, 0); background-color: transparent; font-weight: 400; font-style: normal; font-variant: normal; text-decoration: none; vertical-align: baseline;&quot;&gt;Era ayudar mí familia&lt;/span&gt;&lt;/p&gt;&lt;p style=&quot;line-height: 1.8; margin-top: 0pt; margin-bottom: 0pt; font-size: 13px;&quot; dir=&quot;ltr&quot;&gt;&lt;span style=&quot;font-size: 13px; font-family: Arial; color: rgb(0, 0, 0); background-color: transparent; font-weight: 400; font-style: normal; font-variant: normal; text-decoration: none; vertical-align: baseline;&quot;&gt;Porque no hubo para un plato&lt;/span&gt;&lt;/p&gt;&lt;p style=&quot;line-height: 1.8; margin-top: 0pt; margin-bottom: 0pt; font-size: 13px;&quot; dir=&quot;ltr&quot;&gt;&lt;span style=&quot;font-size: 13px; font-family: Arial; color: rgb(0, 0, 0); background-color: transparent; font-weight: 400; font-style: normal; font-variant: normal; text-decoration: none; vertical-align: baseline;&quot;&gt;Ni sal con las tortillas&lt;/span&gt;&lt;/p&gt;" style="text;html=1;strokeColor=none;fillColor=none;align=center;verticalAlign=middle;whiteSpace=wrap;rounded=0;fontSize=13;" vertex="1" parent="1">
          <mxGeometry x="5" y="-230" width="200" height="260" as="geometry" />
        </mxCell>
        <mxCell id="vRk48V976HWC19-EjkwC-9" value="&lt;p style=&quot;line-height: 1.8; margin-top: 0pt; margin-bottom: 0pt; font-size: 13px;&quot; dir=&quot;ltr&quot;&gt;&lt;span style=&quot;font-size: 13px; font-family: Arial; color: rgb(0, 0, 0); background-color: transparent; font-weight: 400; font-style: normal; font-variant: normal; text-decoration: none; vertical-align: baseline;&quot;&gt;Los zapatos bien rompidos&lt;/span&gt;&lt;/p&gt;&lt;p style=&quot;line-height: 1.8; margin-top: 0pt; margin-bottom: 0pt; font-size: 13px;&quot; dir=&quot;ltr&quot;&gt;&lt;span style=&quot;font-size: 13px; font-family: Arial; color: rgb(0, 0, 0); background-color: transparent; font-weight: 400; font-style: normal; font-variant: normal; text-decoration: none; vertical-align: baseline;&quot;&gt;Jugando con mis amigos&lt;/span&gt;&lt;/p&gt;&lt;p style=&quot;line-height: 1.8; margin-top: 0pt; margin-bottom: 0pt; font-size: 13px;&quot; dir=&quot;ltr&quot;&gt;&lt;span style=&quot;font-size: 13px; font-family: Arial; color: rgb(0, 0, 0); background-color: transparent; font-weight: 400; font-style: normal; font-variant: normal; text-decoration: none; vertical-align: baseline;&quot;&gt;Esa era mí medicina&lt;/span&gt;&lt;/p&gt;&lt;p style=&quot;line-height: 1.8; margin-top: 0pt; margin-bottom: 0pt; font-size: 13px;&quot; dir=&quot;ltr&quot;&gt;&lt;span style=&quot;font-size: 13px; font-family: Arial; color: rgb(0, 0, 0); background-color: transparent; font-weight: 400; font-style: normal; font-variant: normal; text-decoration: none; vertical-align: baseline;&quot;&gt;Y lo que me alegraba&lt;/span&gt;&lt;/p&gt;&lt;p style=&quot;line-height: 1.8; margin-top: 0pt; margin-bottom: 0pt; font-size: 13px;&quot; dir=&quot;ltr&quot;&gt;&lt;span style=&quot;font-size: 13px; font-family: Arial; color: rgb(0, 0, 0); background-color: transparent; font-weight: 400; font-style: normal; font-variant: normal; text-decoration: none; vertical-align: baseline;&quot;&gt;Tazos y unas sabritas&lt;/span&gt;&lt;/p&gt;" style="text;html=1;strokeColor=none;fillColor=none;align=center;verticalAlign=middle;whiteSpace=wrap;rounded=0;fontSize=13;" vertex="1" parent="1">
          <mxGeometry x="260" y="-220" width="170" height="150" as="geometry" />
        </mxCell>
        <mxCell id="vRk48V976HWC19-EjkwC-10" value="&lt;br style=&quot;font-size: 13px;&quot;&gt;&lt;p style=&quot;line-height: 1.8; margin-top: 0pt; margin-bottom: 0pt; font-size: 13px;&quot; dir=&quot;ltr&quot;&gt;&lt;span style=&quot;font-size: 13px; font-family: Arial; color: rgb(0, 0, 0); background-color: transparent; font-weight: 400; font-style: normal; font-variant: normal; text-decoration: none; vertical-align: baseline;&quot;&gt;Luego pasaba el tiempo&lt;/span&gt;&lt;/p&gt;&lt;p style=&quot;line-height: 1.8; margin-top: 0pt; margin-bottom: 0pt; font-size: 13px;&quot; dir=&quot;ltr&quot;&gt;&lt;span style=&quot;font-size: 13px; font-family: Arial; color: rgb(0, 0, 0); background-color: transparent; font-weight: 400; font-style: normal; font-variant: normal; text-decoration: none; vertical-align: baseline;&quot;&gt;Y el morrito fué creciendo&lt;/span&gt;&lt;/p&gt;&lt;p style=&quot;line-height: 1.8; margin-top: 0pt; margin-bottom: 0pt; font-size: 13px;&quot; dir=&quot;ltr&quot;&gt;&lt;span style=&quot;font-size: 13px; font-family: Arial; color: rgb(0, 0, 0); background-color: transparent; font-weight: 400; font-style: normal; font-variant: normal; text-decoration: none; vertical-align: baseline;&quot;&gt;Poco a poco aprendendiendo&lt;/span&gt;&lt;/p&gt;&lt;p style=&quot;line-height: 1.8; margin-top: 0pt; margin-bottom: 0pt; font-size: 13px;&quot; dir=&quot;ltr&quot;&gt;&lt;span style=&quot;font-size: 13px; font-family: Arial; color: rgb(0, 0, 0); background-color: transparent; font-weight: 400; font-style: normal; font-variant: normal; text-decoration: none; vertical-align: baseline;&quot;&gt;Cómo ganarse la vida&lt;/span&gt;&lt;/p&gt;" style="text;html=1;strokeColor=none;fillColor=none;align=center;verticalAlign=middle;whiteSpace=wrap;rounded=0;fontSize=13;" vertex="1" parent="1">
          <mxGeometry x="475" y="-230" width="120" height="150" as="geometry" />
        </mxCell>
        <mxCell id="vRk48V976HWC19-EjkwC-13" value="&lt;p style=&quot;line-height: 1.8; margin-top: 0pt; margin-bottom: 0pt; font-size: 13px;&quot; dir=&quot;ltr&quot;&gt;&lt;span style=&quot;font-size: 13px; font-family: Arial; color: rgb(0, 0, 0); background-color: transparent; font-weight: 400; font-style: normal; font-variant: normal; text-decoration: none; vertical-align: baseline;&quot;&gt;Lo que te enseña la calle&lt;/span&gt;&lt;/p&gt;&lt;p style=&quot;line-height: 1.8; margin-top: 0pt; margin-bottom: 0pt; font-size: 13px;&quot; dir=&quot;ltr&quot;&gt;&lt;span style=&quot;font-size: 13px; font-family: Arial; color: rgb(0, 0, 0); background-color: transparent; font-weight: 400; font-style: normal; font-variant: normal; text-decoration: none; vertical-align: baseline;&quot;&gt;Eso no lo aprendes con nadie&lt;/span&gt;&lt;/p&gt;&lt;p style=&quot;line-height: 1.8; margin-top: 0pt; margin-bottom: 0pt; font-size: 13px;&quot; dir=&quot;ltr&quot;&gt;&lt;span style=&quot;font-size: 13px; font-family: Arial; color: rgb(0, 0, 0); background-color: transparent; font-weight: 400; font-style: normal; font-variant: normal; text-decoration: none; vertical-align: baseline;&quot;&gt;Es una escuela maldita&lt;/span&gt;&lt;/p&gt;&lt;p style=&quot;line-height: 1.8; margin-top: 0pt; margin-bottom: 0pt; font-size: 13px;&quot; dir=&quot;ltr&quot;&gt;&lt;span style=&quot;font-size: 13px; font-family: Arial; color: rgb(0, 0, 0); background-color: transparent; font-weight: 400; font-style: normal; font-variant: normal; text-decoration: none; vertical-align: baseline;&quot;&gt;Tienes que chingarle mucho&lt;/span&gt;&lt;/p&gt;&lt;p style=&quot;line-height: 1.8; margin-top: 0pt; margin-bottom: 0pt; font-size: 13px;&quot; dir=&quot;ltr&quot;&gt;&lt;span style=&quot;font-size: 13px; font-family: Arial; color: rgb(0, 0, 0); background-color: transparent; font-weight: 400; font-style: normal; font-variant: normal; text-decoration: none; vertical-align: baseline;&quot;&gt;Para ayudar a la familia&lt;/span&gt;&lt;/p&gt;" style="text;html=1;strokeColor=none;fillColor=none;align=center;verticalAlign=middle;whiteSpace=wrap;rounded=0;fontSize=13;" vertex="1" parent="1">
          <mxGeometry x="670" y="-220" width="110" height="190" as="geometry" />
        </mxCell>
        <mxCell id="vRk48V976HWC19-EjkwC-14" value="&lt;p style=&quot;line-height: 1.8; margin-top: 0pt; margin-bottom: 0pt; font-size: 13px;&quot; dir=&quot;ltr&quot;&gt;&lt;span style=&quot;font-size: 13px; font-family: Arial; color: rgb(0, 0, 0); background-color: transparent; font-weight: 400; font-style: normal; font-variant: normal; text-decoration: none; vertical-align: baseline;&quot;&gt;Sí ahora me ven caminando&lt;/span&gt;&lt;/p&gt;&lt;p style=&quot;line-height: 1.8; margin-top: 0pt; margin-bottom: 0pt; font-size: 13px;&quot; dir=&quot;ltr&quot;&gt;&lt;span style=&quot;font-size: 13px; font-family: Arial; color: rgb(0, 0, 0); background-color: transparent; font-weight: 400; font-style: normal; font-variant: normal; text-decoration: none; vertical-align: baseline;&quot;&gt;Paso firme y pa&#39; adelante&lt;/span&gt;&lt;/p&gt;&lt;p style=&quot;line-height: 1.8; margin-top: 0pt; margin-bottom: 0pt; font-size: 13px;&quot; dir=&quot;ltr&quot;&gt;&lt;span style=&quot;font-size: 13px; font-family: Arial; color: rgb(0, 0, 0); background-color: transparent; font-weight: 400; font-style: normal; font-variant: normal; text-decoration: none; vertical-align: baseline;&quot;&gt;Ando alivianado&lt;/span&gt;&lt;/p&gt;&lt;p style=&quot;line-height: 1.8; margin-top: 0pt; margin-bottom: 0pt; font-size: 13px;&quot; dir=&quot;ltr&quot;&gt;&lt;span style=&quot;font-size: 13px; font-family: Arial; color: rgb(0, 0, 0); background-color: transparent; font-weight: 400; font-style: normal; font-variant: normal; text-decoration: none; vertical-align: baseline;&quot;&gt;Porque supe bien chingarme&lt;/span&gt;&lt;/p&gt;" style="text;html=1;strokeColor=none;fillColor=none;align=center;verticalAlign=middle;whiteSpace=wrap;rounded=0;fontSize=13;" vertex="1" parent="1">
          <mxGeometry x="45" y="140" width="120" height="90" as="geometry" />
        </mxCell>
        <mxCell id="vRk48V976HWC19-EjkwC-16" value="&lt;p style=&quot;line-height: 1.8; margin-top: 0pt; margin-bottom: 0pt; font-size: 13px;&quot; dir=&quot;ltr&quot;&gt;&lt;span style=&quot;font-size: 13px; font-family: Arial; color: rgb(0, 0, 0); background-color: transparent; font-weight: 400; font-style: normal; font-variant: normal; text-decoration: none; vertical-align: baseline;&quot;&gt;A tornillos le supe yo pegarle bien duro&lt;/span&gt;&lt;/p&gt;&lt;p style=&quot;line-height: 1.8; margin-top: 0pt; margin-bottom: 0pt; font-size: 13px;&quot; dir=&quot;ltr&quot;&gt;&lt;span style=&quot;font-size: 13px; font-family: Arial; color: rgb(0, 0, 0); background-color: transparent; font-weight: 400; font-style: normal; font-variant: normal; text-decoration: none; vertical-align: baseline;&quot;&gt;No le aflojo le sigo chambeando&lt;/span&gt;&lt;/p&gt;&lt;p style=&quot;line-height: 1.8; margin-top: 0pt; margin-bottom: 0pt; font-size: 13px;&quot; dir=&quot;ltr&quot;&gt;&lt;span style=&quot;font-size: 13px; font-family: Arial; color: rgb(0, 0, 0); background-color: transparent; font-weight: 400; font-style: normal; font-variant: normal; text-decoration: none; vertical-align: baseline;&quot;&gt;Bien macizo&lt;/span&gt;&lt;/p&gt;&lt;p style=&quot;line-height: 1.8; margin-top: 0pt; margin-bottom: 0pt; font-size: 13px;&quot; dir=&quot;ltr&quot;&gt;&lt;span style=&quot;font-size: 13px; font-family: Arial; color: rgb(0, 0, 0); background-color: transparent; font-weight: 400; font-style: normal; font-variant: normal; text-decoration: none; vertical-align: baseline;&quot;&gt;Macizo&lt;/span&gt;&lt;/p&gt;" style="text;html=1;strokeColor=none;fillColor=none;align=center;verticalAlign=middle;whiteSpace=wrap;rounded=0;fontSize=13;" vertex="1" parent="1">
          <mxGeometry x="220" y="115" width="140" height="140" as="geometry" />
        </mxCell>
        <mxCell id="vRk48V976HWC19-EjkwC-17" value="" style="endArrow=none;html=1;rounded=0;fontSize=13;" edge="1" parent="1">
          <mxGeometry width="50" height="50" relative="1" as="geometry">
            <mxPoint x="20" y="-240" as="sourcePoint" />
            <mxPoint x="841" y="-280" as="targetPoint" />
          </mxGeometry>
        </mxCell>
        <mxCell id="vRk48V976HWC19-EjkwC-18" value="" style="endArrow=none;html=1;rounded=0;fontSize=13;" edge="1" parent="1">
          <mxGeometry width="50" height="50" relative="1" as="geometry">
            <mxPoint y="-520" as="sourcePoint" />
            <mxPoint x="830" y="-500" as="targetPoint" />
          </mxGeometry>
        </mxCell>
        <mxCell id="vRk48V976HWC19-EjkwC-19" value="" style="endArrow=none;html=1;rounded=0;fontSize=13;" edge="1" parent="1">
          <mxGeometry width="50" height="50" relative="1" as="geometry">
            <mxPoint x="5" y="90" as="sourcePoint" />
            <mxPoint x="460" y="90" as="targetPoint" />
          </mxGeometry>
        </mxCell>
      </root>
    </mxGraphModel>
  </diagram>
</mxfile>
